HIERARCHY
ROOT Root
{
  OFFSET 0.0 0.0 0.0
  CHANNELS 6 Xposition Yposition Zposition Zrotation Yrotation Xrotation
  JOINT Hips
  {
    OFFSET 0.0 100.0 0.0
    CHANNELS 6 Xposition Yposition Zposition Zrotation Yrotation Xrotation
    JOINT Spine1
    {
      OFFSET -0.013727 5.003763 -0.053727
      CHANNELS 3 Zrotation Yrotation Xrotation
      JOINT Spine2
      {
        OFFSET -0.0 7.125301 -0.029825
        CHANNELS 3 Zrotation Yrotation Xrotation
        JOINT Chest
        {
          OFFSET -1e-06 7.550063 -0.815971
          CHANNELS 3 Zrotation Yrotation Xrotation
          JOINT Neck1
          {
            OFFSET -0.181677 26.311295 -0.553348
            CHANNELS 3 Zrotation Yrotation Xrotation
            JOINT Neck2
            {
              OFFSET -3e-06 7.709397 2.302585
              CHANNELS 3 Zrotation Yrotation Xrotation
              JOINT Head
              {
                OFFSET -5e-06 6.128916 1.953709
                CHANNELS 3 Zrotation Yrotation Xrotation
                JOINT HeadEnd
                {
                  OFFSET 0.003598 16.065403 -1.835379
                  CHANNELS 3 Zrotation Yrotation Xrotation
                }
                JOINT Jaw
                {
                  OFFSET 0.002637 0.475592 3.094941
                  CHANNELS 3 Zrotation Yrotation Xrotation
                }
                JOINT LeftEye
                {
                  OFFSET 3.206381 5.380205 7.586883
                  CHANNELS 3 Zrotation Yrotation Xrotation
                }
                JOINT RightEye
                {
                  OFFSET -3.22244 5.361869 7.558234
                  CHANNELS 3 Zrotation Yrotation Xrotation
                }
              }
            }
          }
          JOINT LeftShoulder
          {
            OFFSET 1.621652 23.237164 5.113413
            CHANNELS 3 Zrotation Yrotation Xrotation
            JOINT LeftArm
            {
              OFFSET 14.919846 2e-06 -5.502326
              CHANNELS 3 Zrotation Yrotation Xrotation
              JOINT LeftForeArm
              {
                OFFSET 28.739307 0.0 -0.002588
                CHANNELS 3 Zrotation Yrotation Xrotation
                JOINT LeftHand
                {
                  OFFSET 27.093981 -1e-06 0.002609
                  CHANNELS 3 Zrotation Yrotation Xrotation
                  JOINT LeftHandThumb1
                  {
                    OFFSET 2.276482 -1.392045 3.191413
                    CHANNELS 3 Zrotation Yrotation Xrotation
                    JOINT LeftHandThumb2
                    {
                      OFFSET 4.012836 -1.828127 1.641654
                      CHANNELS 3 Zrotation Yrotation Xrotation
                      JOINT LeftHandThumb3
                      {
                        OFFSET 2.798515 0.0 -3e-06
                        CHANNELS 3 Zrotation Yrotation Xrotation
                        JOINT LeftHandThumbEnd
                        {
                          OFFSET 3.180793 -4e-06 4e-06
                          CHANNELS 3 Zrotation Yrotation Xrotation
                        }
                      }
                    }
                  }
                  JOINT LeftHandIndex1
                  {
                    OFFSET 3.247555 -0.531998 2.296169
                    CHANNELS 3 Zrotation Yrotation Xrotation
                    JOINT LeftHandIndex2
                    {
                      OFFSET 6.364578 0.01206 0.1786
                      CHANNELS 3 Zrotation Yrotation Xrotation
                      JOINT LeftHandIndex3
                      {
                        OFFSET 3.662364 0.0 0.0
                        CHANNELS 3 Zrotation Yrotation Xrotation
                        JOINT LeftHandIndex4
                        {
                          OFFSET 2.329242 4e-06 4e-06
                          CHANNELS 3 Zrotation Yrotation Xrotation
                          JOINT LeftHandIndexEnd
                          {
                            OFFSET 2.759615 -0.180537 -0.113024
                            CHANNELS 3 Zrotation Yrotation Xrotation
                          }
                        }
                      }
                    }
                  }
                  JOINT LeftHandMiddle1
                  {
                    OFFSET 3.163495 0.240981 1.000332
                    CHANNELS 3 Zrotation Yrotation Xrotation
                    JOINT LeftHandMiddle2
                    {
                      OFFSET 6.19078 -0.259278 -1.002548
                      CHANNELS 3 Zrotation Yrotation Xrotation
                      JOINT LeftHandMiddle3
                      {
                        OFFSET 4.35652 -4e-06 -1e-06
                        CHANNELS 3 Zrotation Yrotation Xrotation
                        JOINT LeftHandMiddle4
                        {
                          OFFSET 2.996877 -8e-06 0.0
                          CHANNELS 3 Zrotation Yrotation Xrotation
                          JOINT LeftHandMiddleEnd
                          {
                            OFFSET 2.304287 -0.294569 -0.031741
                            CHANNELS 3 Zrotation Yrotation Xrotation
                          }
                        }
                      }
                    }
                  }
                  JOINT LeftHandRing1
                  {
                    OFFSET 2.882643 -0.053652 -0.322543
                    CHANNELS 3 Zrotation Yrotation Xrotation
                    JOINT LeftHandRing2
                    {
                      OFFSET 5.854541 -0.486202 -1.373841
                      CHANNELS 3 Zrotation Yrotation Xrotation
                      JOINT LeftHandRing3
                      {
                        OFFSET 4.350578 0.0 3e-06
                        CHANNELS 3 Zrotation Yrotation Xrotation
                        JOINT LeftHandRing4
                        {
                          OFFSET 2.651321 7e-06 2e-06
                          CHANNELS 3 Zrotation Yrotation Xrotation
                          JOINT LeftHandRingEnd
                          {
                            OFFSET 1.936105 0.077687 -7.1e-05
                            CHANNELS 3 Zrotation Yrotation Xrotation
                          }
                        }
                      }
                    }
                  }
                  JOINT LeftHandPinky1
                  {
                    OFFSET 2.8655 -0.310005 -1.600378
                    CHANNELS 3 Zrotation Yrotation Xrotation
                    JOINT LeftHandPinky2
                    {
                      OFFSET 5.087849 -1.331141 -1.77123
                      CHANNELS 3 Zrotation Yrotation Xrotation
                      JOINT LeftHandPinky3
                      {
                        OFFSET 3.070974 4e-06 0.0
                        CHANNELS 3 Zrotation Yrotation Xrotation
                        JOINT LeftHandPinky4
                        {
                          OFFSET 1.549672 0.0 1e-06
                          CHANNELS 3 Zrotation Yrotation Xrotation
                          JOINT LeftHandPinkyEnd
                          {
                            OFFSET 1.944893 -0.157802 0.057219
                            CHANNELS 3 Zrotation Yrotation Xrotation
                          }
                        }
                      }
                    }
                  }
                }
              }
            }
          }
          JOINT RightShoulder
          {
            OFFSET -1.380118 23.180309 5.214158
            CHANNELS 3 Zrotation Yrotation Xrotation
            JOINT RightArm
            {
              OFFSET -15.037196 1.2e-05 -5.545604
              CHANNELS 3 Zrotation Yrotation Xrotation
              JOINT RightForeArm
              {
                OFFSET -28.736639 2e-06 -0.002597
                CHANNELS 3 Zrotation Yrotation Xrotation
                JOINT RightHand
                {
                  OFFSET -27.133619 -0.0 0.002613
                  CHANNELS 3 Zrotation Yrotation Xrotation
                  JOINT RightHandThumb1
                  {
                    OFFSET -2.274032 -1.383988 3.163127
                    CHANNELS 3 Zrotation Yrotation Xrotation
                    JOINT RightHandThumb2
                    {
                      OFFSET -4.011429 -1.827466 1.640914
                      CHANNELS 3 Zrotation Yrotation Xrotation
                      JOINT RightHandThumb3
                      {
                        OFFSET -2.794935 -4e-06 -3e-06
                        CHANNELS 3 Zrotation Yrotation Xrotation
                        JOINT RightHandThumbEnd
                        {
                          OFFSET -3.183852 4e-06 1e-06
                          CHANNELS 3 Zrotation Yrotation Xrotation
                        }
                      }
                    }
                  }
                  JOINT RightHandIndex1
                  {
                    OFFSET -3.253266 -0.520057 2.282866
                    CHANNELS 3 Zrotation Yrotation Xrotation
                    JOINT RightHandIndex2
                    {
                      OFFSET -6.341917 0.012471 0.178266
                      CHANNELS 3 Zrotation Yrotation Xrotation
                      JOINT RightHandIndex3
                      {
                        OFFSET -3.654871 -8e-06 -0.0
                        CHANNELS 3 Zrotation Yrotation Xrotation
                        JOINT RightHandIndex4
                        {
                          OFFSET -2.327586 0.0 1e-06
                          CHANNELS 3 Zrotation Yrotation Xrotation
                          JOINT RightHandIndexEnd
                          {
                            OFFSET -2.76179 -0.180656 -0.113078
                            CHANNELS 3 Zrotation Yrotation Xrotation
                          }
                        }
                      }
                    }
                  }
                  JOINT RightHandMiddle1
                  {
                    OFFSET -3.168106 0.246593 1.00103
                    CHANNELS 3 Zrotation Yrotation Xrotation
                    JOINT RightHandMiddle2
                    {
                      OFFSET -6.180828 -0.258836 -1.000895
                      CHANNELS 3 Zrotation Yrotation Xrotation
                      JOINT RightHandMiddle3
                      {
                        OFFSET -4.348901 0.0 -0.0
                        CHANNELS 3 Zrotation Yrotation Xrotation
                        JOINT RightHandMiddle4
                        {
                          OFFSET -3.00024 -4e-06 -2e-06
                          CHANNELS 3 Zrotation Yrotation Xrotation
                          JOINT RightHandMiddleEnd
                          {
                            OFFSET -2.30252 -0.29437 -0.031706
                            CHANNELS 3 Zrotation Yrotation Xrotation
                          }
                        }
                      }
                    }
                  }
                  JOINT RightHandRing1
                  {
                    OFFSET -2.88569 -0.067952 -0.308858
                    CHANNELS 3 Zrotation Yrotation Xrotation
                    JOINT RightHandRing2
                    {
                      OFFSET -5.854198 -0.48613 -1.373731
                      CHANNELS 3 Zrotation Yrotation Xrotation
                      JOINT RightHandRing3
                      {
                        OFFSET -4.33881 -4e-06 -0.0
                        CHANNELS 3 Zrotation Yrotation Xrotation
                        JOINT RightHandRing4
                        {
                          OFFSET -2.654903 -4e-06 4e-06
                          CHANNELS 3 Zrotation Yrotation Xrotation
                          JOINT RightHandRingEnd
                          {
                            OFFSET -1.933568 0.077527 -5.2e-05
                            CHANNELS 3 Zrotation Yrotation Xrotation
                          }
                        }
                      }
                    }
                  }
                  JOINT RightHandPinky1
                  {
                    OFFSET -2.866425 -0.342796 -1.584145
                    CHANNELS 3 Zrotation Yrotation Xrotation
                    JOINT RightHandPinky2
                    {
                      OFFSET -5.091371 -1.332055 -1.772385
                      CHANNELS 3 Zrotation Yrotation Xrotation
                      JOINT RightHandPinky3
                      {
                        OFFSET -3.062664 -4e-06 1e-06
                        CHANNELS 3 Zrotation Yrotation Xrotation
                        JOINT RightHandPinky4
                        {
                          OFFSET -1.546529 4e-06 -2e-06
                          CHANNELS 3 Zrotation Yrotation Xrotation
                          JOINT RightHandPinkyEnd
                          {
                            OFFSET -1.945119 -0.157718 0.057211
                            CHANNELS 3 Zrotation Yrotation Xrotation
                          }
                        }
                      }
                    }
                  }
                }
              }
            }
          }
        }
      }
    }
    JOINT LeftLeg
    {
      OFFSET 10.043214 -8.434526 2.595655
      CHANNELS 3 Zrotation Yrotation Xrotation
      JOINT LeftShin
      {
        OFFSET -1e-06 -43.221752 -0.802913
        CHANNELS 3 Zrotation Yrotation Xrotation
        JOINT LeftFoot
        {
          OFFSET 1e-06 -42.155094 -3.481523
          CHANNELS 3 Zrotation Yrotation Xrotation
          JOINT LeftToeBase
          {
            OFFSET 0.0 -5.059472 13.231529
            CHANNELS 3 Zrotation Yrotation Xrotation
            JOINT LeftToeEnd
            {
              OFFSET -0.009607 -1.647619 6.513017
              CHANNELS 3 Zrotation Yrotation Xrotation
            }
          }
        }
      }
    }
    JOINT RightLeg
    {
      OFFSET -10.047278 -8.29526 2.620317
      CHANNELS 3 Zrotation Yrotation Xrotation
      JOINT RightShin
      {
        OFFSET 1e-06 -43.362206 -0.805556
        CHANNELS 3 Zrotation Yrotation Xrotation
        JOINT RightFoot
        {
          OFFSET 2e-06 -42.117393 -3.478398
          CHANNELS 3 Zrotation Yrotation Xrotation
          JOINT RightToeBase
          {
            OFFSET -0.0 -5.079609 13.284196
            CHANNELS 3 Zrotation Yrotation Xrotation
            JOINT RightToeEnd
            {
              OFFSET 0.009532 -1.634378 6.460591
              CHANNELS 3 Zrotation Yrotation Xrotation
            }
          }
        }
      }
    }
  }
}
MOTION
Frames: 4
Frame Time: 0.03333333333333333
-0.194659 -0.903702 -2.377462 0.0 -0.0 0.0 -0.194659 99.096298 -2.377462 0.234885 0.120402 -6.842842 1.052592 -0.133624 -1.587502 -0.482969 -0.325029 -5.76594 -2.423534 -1.715633 16.419464 -1.212953 3.257399 5.502132 -0.512404 0.772725 -3.611864 0.840993 -0.407018 -9.355006 7.7e-05 -2.3e-05 6e-06 0.023283 0.017658 0.020509 0.728637 -3.699553 -10.543795 -0.683666 3.744858 -10.542759 -8.762442 -6.784134 14.997733 -59.897072 -11.17462 34.392567 0.507857 -23.105162 -0.186199 6.432241 6.240693 -17.536669 -5.882113 9.86129 0.702591 -10.936881 -0.360574 7.15621 -0.0 8.77483 -1e-06 -16.524393 17.711235 5.882185 -1.844034 2.498505 -2.507277 -10.16361 4.678948 4.621113 -20.97604 -2e-06 2e-06 -21.226305 2.4517 -3.594002 -0.0 -7e-06 0.0 -1.362682 2.240799 -0.746323 -21.334932 0.584913 3.008326 -13.821225 -2e-06 0.0 -23.887192 -0.249077 -0.839484 -60.539589 2.386424 -1.048237 -0.294025 1.679689 0.833257 -14.218219 0.093216 1.30058 -34.212074 -0.28756 0.967171 -20.033228 0.964537 1.212842 1e-06 3e-06 1e-06 -3.440391 0.788234 0.501657 -15.928201 -3.16731 2.999707 -6.338831 -1e-06 1e-06 -18.123463 3.648185 -4.905674 -4e-06 -1e-06 -2e-06 15.191188 8.86708 16.48148 62.459274 7.975951 11.444271 0.035036 26.783506 0.06073 5.241198 -4.069805 -2.785736 2.243543 -5.255039 -3.18016 14.282904 -0.826596 6.952507 -2e-06 -12.690612 3e-06 15.913605 -17.66017 2.651686 1.665667 -1.955922 -2.878299 4.727802 -4.17059 4.993927 11.020536 2e-06 -1e-06 12.109062 -3.735717 -2.866786 0.0 0.0 -2e-06 1.291986 -1.92855 -1.498089 14.800139 0.567468 3.865609 14.24258 -1.341736 -6.660661 19.631985 0.143926 -0.648246 49.767921 -0.485297 -6.467495 0.35303 -1.511151 -0.031941 20.222811 3.684312 2.31663 18.787289 5e-06 -1e-06 10.751638 -0.479868 1.397908 -1e-06 -1e-06 2e-06 3.27381 0.305946 -0.580111 21.486832 11.830381 2.266133 8.162935 3e-06 -2e-06 18.399096 -3.798986 -4.940579 3e-06 0.0 -2e-06 4.630452 8.151757 6.524982 0.019696 0.041368 10.609572 -5.289815 3.646858 -9.785095 1.680441 -1.946301 -0.434977 -0.0 0.0 2e-06 -5.967899 6.223955 3.712389 0.035101 0.170199 10.576737 6.348007 5.118334 -8.032526 -1.41457 1.013214 -1.278345 -0.0 0.0 -1e-06 
-0.159482 -0.903702 -2.321205 0.0 -0.0 0.0 -0.159482 99.120522 -2.321205 0.211226 0.06074 -6.843386 1.115303 -0.137972 -1.644376 -0.446463 -0.28881 -5.779007 -2.475554 -1.739534 16.42485 -1.348458 3.308845 5.509458 -0.510564 0.713664 -3.604526 0.782658 -0.38725 -9.417523 7.7e-05 -2.3e-05 6e-06 0.021265 0.041279 0.014225 0.722067 -3.677687 -10.527157 -0.681161 3.77018 -10.524649 -8.843863 -6.74513 15.002912 -59.614956 -11.559169 34.141888 0.524475 -23.749596 -0.236807 6.455679 6.286476 -17.251324 -5.882106 9.861287 0.70259 -10.936878 -0.360578 7.156211 3e-06 8.774829 -1e-06 -16.556946 17.732258 5.885651 -1.844034 2.498504 -2.507277 -10.163604 4.678943 4.621112 -20.976036 -8e-06 7e-06 -21.226295 2.451695 -3.593994 -0.0 -6e-06 -1e-06 -1.362681 2.240798 -0.746325 -21.334929 0.584905 3.008328 -13.821222 -5e-06 4e-06 -23.887188 -0.24908 -0.839476 -60.611912 2.382118 -0.942489 -0.294024 1.679688 0.833256 -14.218217 0.093211 1.300585 -34.212067 -0.287568 0.967181 -20.033226 0.964535 1.212851 2e-06 2e-06 0.0 -3.440389 0.788232 0.501656 -15.928198 -3.167314 2.99971 -6.338829 -2e-06 2e-06 -18.123457 3.64818 -4.905667 -3e-06 -1e-06 -1e-06 15.18981 8.872499 16.56938 62.359238 7.970787 11.391232 0.094997 26.732561 0.067513 5.274158 -3.983518 -2.792394 2.243543 -5.255039 -3.180159 14.282904 -0.826593 6.952507 -4e-06 -12.690612 1e-06 15.959096 -17.706066 2.607761 1.665667 -1.955922 -2.8783 4.727802 -4.170589 4.993927 11.020535 5e-06 -1e-06 12.10906 -3.735716 -2.866783 -1e-06 -0.0 -2e-06 1.291986 -1.92855 -1.498089 14.80014 0.567471 3.865609 14.242584 -1.341735 -6.660659 19.631985 0.143927 -0.648242 49.81139 -0.465046 -6.45628 0.353029 -1.511152 -0.031939 20.222811 3.684315 2.31663 18.787289 9e-06 1e-06 10.751637 -0.479867 1.397907 -1e-06 -1e-06 2e-06 3.27381 0.305948 -0.58011 21.486834 11.830386 2.266136 8.162935 3e-06 0.0 18.399099 -3.798986 -4.940576 3e-06 1e-06 -2e-06 4.647072 8.188187 6.73398 0.003183 0.00689 10.284382 -5.312749 3.69202 -9.684245 1.681949 -1.974817 -0.470898 0.0 -0.0 2e-06 -5.92034 6.247055 3.963151 0.026147 0.197194 10.151951 6.303614 5.072844 -7.893843 -1.419265 0.99274 -1.295452 -0.0 0.0 -1e-06 
-0.131123 -0.903702 -2.268802 0.0 -0.0 0.0 -0.131123 99.126732 -2.268802 0.20305 0.01535 -6.86451 1.169725 -0.145292 -1.70399 -0.41912 -0.272135 -5.799185 -2.512084 -1.745947 16.475822 -1.505319 3.378273 5.505975 -0.510571 0.643968 -3.641125 0.727244 -0.429254 -9.428869 7.7e-05 -2.3e-05 6e-06 0.020489 0.046288 0.007048 0.717467 -3.673319 -10.539302 -0.678128 3.775655 -10.531157 -8.820488 -6.747751 14.950643 -59.146107 -12.032697 33.953293 0.518849 -24.895691 -0.285671 6.429899 6.451282 -17.275427 -5.882108 9.86129 0.702593 -10.936875 -0.360575 7.156207 0.0 8.774829 -2e-06 -16.591814 17.77556 5.889867 -1.844033 2.498507 -2.507278 -10.163602 4.678947 4.621109 -20.97603 -4e-06 1e-06 -21.226294 2.451698 -3.594003 -0.0 -6e-06 1e-06 -1.362682 2.240799 -0.746323 -21.334921 0.584911 3.008324 -13.821218 -4e-06 -1e-06 -23.887182 -0.249081 -0.839485 -60.65641 2.412452 -0.922723 -0.294024 1.679688 0.833258 -14.218214 0.093216 1.30058 -34.212055 -0.287563 0.967167 -20.03322 0.964535 1.21284 1e-06 2e-06 0.0 -3.44039 0.788232 0.501657 -15.928191 -3.167311 2.999706 -6.338829 -1e-06 1e-06 -18.123455 3.648184 -4.905675 -4e-06 -1e-06 -1e-06 15.190216 8.887867 16.622286 62.213474 7.922146 11.361337 0.180291 26.750425 0.083486 5.189729 -3.888749 -2.693993 2.243542 -5.255039 -3.180157 14.282894 -0.826595 6.952502 -0.0 -12.690609 -1e-06 15.986936 -17.72126 2.588391 1.665666 -1.955922 -2.878298 4.727799 -4.170588 4.993923 11.020526 2e-06 -2e-06 12.109053 -3.735719 -2.866785 -0.0 -0.0 -1e-06 1.291986 -1.92855 -1.498089 14.800129 0.567467 3.865606 14.24257 -1.34174 -6.660656 19.631969 0.143923 -0.648244 49.802284 -0.463926 -6.471498 0.35303 -1.511152 -0.03194 20.222794 3.684309 2.316629 18.787273 3e-06 -1e-06 10.75163 -0.479868 1.397905 -1e-06 -0.0 1e-06 3.273808 0.305946 -0.58011 21.486814 11.830379 2.266135 8.162928 1e-06 -1e-06 18.399088 -3.798988 -4.94058 3e-06 1e-06 -3e-06 4.6319 8.152663 6.879171 0.000778 -0.013148 10.120294 -5.296895 3.751147 -9.659307 1.682427 -1.987168 -0.459266 0.0 -0.0 2e-06 -5.909206 6.242094 4.128798 0.030661 0.209433 9.951874 6.296609 5.004529 -7.85121 -1.41958 0.983415 -1.278283 0.0 0.0 -1e-06 
-0.126903 -0.903702 -2.223373 0.0 -0.0 0.0 -0.126903 99.124649 -2.223373 0.206773 -0.021484 -6.893482 1.202495 -0.145824 -1.749089 -0.395896 -0.259719 -5.81687 -2.524973 -1.73777 16.516766 -1.697427 3.450972 5.505592 -0.50663 0.615692 -3.686451 0.699123 -0.49683 -9.456035 7.7e-05 -2.2e-05 6e-06 0.018565 0.040122 0.002641 0.713156 -3.679673 -10.559314 -0.677597 3.769278 -10.546032 -8.704029 -6.785263 14.86388 -58.415501 -12.655621 33.868454 0.538303 -26.560341 -0.333972 6.381495 6.650078 -17.491972 -5.882112 9.861293 0.702589 -10.93688 -0.360574 7.156209 -0.0 8.774831 -0.0 -16.575855 17.808516 5.915761 -1.844034 2.498506 -2.507278 -10.16361 4.678948 4.621113 -20.976042 -2e-06 2e-06 -21.226301 2.451699 -3.594002 0.0 -6e-06 0.0 -1.362682 2.2408 -0.746324 -21.33493 0.584911 3.008322 -13.821225 -2e-06 -1e-06 -23.887192 -0.249078 -0.839486 -60.686005 2.462535 -0.926342 -0.294026 1.679688 0.833257 -14.218221 0.093216 1.30058 -34.212082 -0.287562 0.967167 -20.033232 0.964538 1.212842 0.0 -0.0 1e-06 -3.44039 0.788234 0.501655 -15.928201 -3.16731 2.999707 -6.338831 -1e-06 2e-06 -18.123465 3.648186 -4.905673 -4e-06 -0.0 -3e-06 15.164912 8.89241 16.661707 62.066372 7.875151 11.513538 0.205083 26.868679 0.083022 5.105695 -3.792696 -2.52437 2.243543 -5.25504 -3.180159 14.282899 -0.826595 6.952505 -3e-06 -12.690612 0.0 16.012192 -17.736895 2.578494 1.665667 -1.955922 -2.8783 4.727801 -4.17059 4.993924 11.020534 3e-06 -1e-06 12.109058 -3.735718 -2.866788 -0.0 0.0 -0.0 1.291986 -1.928551 -1.49809 14.800138 0.567469 3.865608 14.24258 -1.341737 -6.660659 19.631983 0.143928 -0.648243 49.758739 -0.491078 -6.487999 0.353029 -1.511152 -0.031941 20.222803 3.684311 2.31663 18.787287 5e-06 -2e-06 10.751634 -0.479867 1.397907 -1e-06 0.0 -0.0 3.273808 0.305947 -0.580111 21.486826 11.83038 2.266134 8.162933 1e-06 -2e-06 18.399092 -3.798986 -4.940579 2e-06 0.0 -2e-06 4.608978 8.07961 6.992905 0.004829 -0.027101 10.022341 -5.269035 3.840702 -9.659372 1.680296 -1.988181 -0.450402 -0.0 0.0 2e-06 -5.999343 6.175338 4.148879 0.039869 0.206976 9.911527 6.403237 4.988372 -7.781802 -1.418032 0.972073 -1.272914 -0.0 -0.0 -1e-06 
